<?xml version="1.0" standalone="no"?>
<!DOCTYPE svg PUBLIC "-//W3C//DTD SVG 20010904//EN"
 "http://www.w3.org/TR/2001/REC-SVG-20010904/DTD/svg10.dtd">
<svg version="1.0" xmlns="http://www.w3.org/2000/svg"
 width="300.000000pt" height="300.000000pt" viewBox="0 0 300.000000 300.000000"
 preserveAspectRatio="xMidYMid meet">
<metadata>
Created by potrace 1.11, written by Peter Selinger 2001-2013
</metadata>
<g transform="translate(0.000000,300.000000) scale(0.100000,-0.100000)"
fill="#000000" stroke="none">
<path d="M971 1994 c-162 -90 -296 -162 -299 -159 -3 3 -5 30 -4 60 l1 55 -55
0 -54 0 0 -92 0 -93 -147 -80 c-80 -44 -169 -92 -197 -107 -41 -23 -64 -28
-118 -28 -39 0 -68 -4 -68 -10 0 -6 73 -10 200 -10 l200 0 0 23 c0 23 6 27
200 129 47 25 105 57 130 70 25 14 115 62 200 108 281 150 305 163 333 179 32
18 -5 34 335 -152 l192 -106 35 16 c19 9 35 19 35 23 0 3 -37 26 -82 51 -46
25 -183 100 -304 167 -122 67 -225 122 -230 121 -5 -1 -141 -75 -303 -165z"/>
<path d="M2203 1945 c-10 -6 -58 -33 -108 -60 -49 -26 -94 -51 -100 -55 -5 -4
-46 -27 -90 -50 -44 -24 -159 -87 -255 -140 -96 -54 -182 -100 -190 -103 -8
-3 54 -6 138 -6 l152 -1 0 23 c0 17 11 29 38 43 20 11 136 73 256 138 l219
118 36 -19 c20 -11 152 -84 293 -162 l258 -142 69 3 70 3 -167 92 c-611 336
-600 331 -619 318z"/>
<path d="M1199 1932 c-7 -45 -3 -72 11 -73 8 0 23 -2 33 -4 18 -3 34 19 31 45
-1 8 -2 20 -3 25 -1 11 -70 18 -72 7z"/>
<path d="M1300 1899 c0 -39 19 -53 60 -42 15 4 19 13 17 42 -2 34 -3 36 -39
36 -37 1 -38 0 -38 -36z"/>
<path d="M1198 1823 c-3 -5 -4 -21 -3 -37 1 -26 4 -30 38 -32 29 -3 37 0 38
14 0 9 2 27 3 40 2 19 -2 22 -35 22 -21 0 -39 -3 -41 -7z"/>
<path d="M1302 1793 c3 -36 5 -38 38 -38 33 0 35 2 37 38 l3 37 -40 0 -41 0 3
-37z"/>
<path d="M2139 1738 c-5 -11 -5 -68 0 -69 3 -1 21 -2 39 -3 31 -2 32 -1 32 36
0 37 -1 38 -35 38 -19 0 -36 -1 -36 -2z"/>
<path d="M2236 1708 c1 -18 2 -35 3 -38 1 -3 17 -5 36 -6 34 -1 35 0 35 38 0
37 -1 38 -38 38 -36 0 -38 -1 -36 -32z"/>
<path d="M735 1693 c-116 -23 -178 -98 -168 -202 6 -67 22 -89 145 -202 135
-125 144 -135 163 -178 21 -47 19 -71 -10 -125 -32 -60 -16 -60 24 0 44 68 52
132 23 204 -9 23 -87 103 -211 216 -64 58 -85 101 -76 155 13 78 120 121 188
75 18 -12 37 -37 43 -56 6 -19 18 -36 27 -38 12 -3 15 10 16 67 0 49 -3 71
-12 72 -33 2 -94 9 -112 12 -11 2 -29 2 -40 0z"/>
<path d="M2165 1641 c-22 -5 -30 -12 -31 -28 -2 -32 9 -44 43 -48 30 -4 31 -2
35 35 4 44 -3 49 -47 41z"/>
<path d="M2258 1642 c-10 -2 -18 -7 -19 -10 -7 -59 -1 -69 41 -68 21 1 25 6
28 37 3 38 -11 50 -50 41z"/>
<path d="M869 1460 c-5 -32 -4 -50 3 -50 4 0 8 4 8 9 0 10 20 18 59 26 31 6
37 -18 35 -143 -1 -97 -4 -115 -20 -127 -17 -13 -14 -14 35 -15 49 0 53 2 36
14 -16 11 -19 28 -20 127 0 63 3 122 8 132 10 21 49 18 77 -6 26 -22 27 -22
22 11 l-4 27 -119 0 c-65 0 -119 -2 -120 -5z"/>
<path d="M1140 1458 c0 -5 7 -8 15 -8 17 0 17 -2 19 -150 1 -88 -2 -108 -16
-122 -17 -17 -13 -18 80 -18 96 0 99 1 110 25 17 37 15 39 -14 16 -35 -28
-124 -30 -125 -3 0 9 -2 38 -3 65 l-2 47 41 0 c23 0 46 -5 53 -12 9 -9 12 -3
12 28 0 26 -3 34 -9 25 -12 -19 -91 -27 -92 -9 -3 36 -1 89 4 94 17 17 72 14
98 -5 l29 -22 0 29 0 28 -100 -1 c-55 0 -100 -3 -100 -7z"/>
<path d="M1363 1458 c-2 -5 2 -8 10 -8 8 0 19 -19 26 -42 41 -143 76 -248 81
-248 5 0 30 66 81 212 14 40 25 39 33 -2 9 -46 70 -210 77 -210 4 0 27 57 49
127 49 149 55 163 77 163 9 0 14 3 10 6 -10 10 -97 12 -97 3 0 -5 5 -8 12 -6
22 4 20 -34 -8 -126 -27 -91 -44 -127 -44 -94 0 10 -4 25 -10 35 -17 30 -61
173 -55 182 7 11 -21 21 -39 14 -8 -3 -12 -12 -9 -20 5 -14 -58 -214 -68 -214
-6 0 -59 181 -59 201 0 7 8 17 17 24 14 11 9 12 -31 11 -26 0 -50 -4 -53 -8z"/>
<path d="M1897 1439 c-9 -19 -37 -81 -62 -139 -25 -58 -54 -112 -65 -121 -18
-16 -16 -16 31 -18 49 -1 50 0 31 17 -20 17 -20 17 -1 60 l19 43 54 -2 55 -2
17 -45 c16 -43 16 -46 -1 -58 -15 -11 -10 -13 41 -12 48 0 55 2 37 11 -22 10
-62 92 -104 214 -30 87 -34 91 -52 52z m32 -86 l21 -53 -46 0 c-33 0 -45 4
-41 13 29 73 40 97 42 95 2 -2 13 -27 24 -55z"/>
<path d="M2089 1451 c19 -12 21 -23 21 -137 0 -98 -3 -126 -16 -138 -14 -15
-11 -16 38 -16 48 1 51 2 34 15 -13 10 -20 30 -22 65 -4 46 -3 50 18 50 15 0
42 -21 79 -63 46 -51 63 -63 90 -65 30 -2 32 0 14 9 -22 13 -125 110 -125 119
0 3 13 11 29 18 35 15 55 60 46 101 -9 40 -65 61 -158 58 -62 -2 -66 -3 -48
-16z m152 -19 c27 -22 30 -75 7 -99 -9 -8 -36 -18 -61 -20 l-46 -5 2 58 c1 33
6 65 10 72 12 18 62 15 88 -6z"/>
<path d="M2340 1437 l0 -28 26 20 c33 26 60 27 73 4 5 -10 8 -69 7 -131 -1
-100 -3 -115 -20 -128 -18 -13 -15 -14 34 -14 53 0 53 0 35 20 -16 17 -18 38
-18 134 0 63 4 119 8 125 9 16 67 6 81 -13 17 -23 23 -19 20 11 l-3 28 -122 0
-121 1 0 -29z"/>
<path d="M161 1072 c-7 -2 -11 -29 -11 -68 0 -55 2 -64 18 -64 15 0 18 6 14
30 -3 18 0 30 7 30 14 0 51 -36 51 -50 0 -5 9 -10 20 -10 24 0 25 8 4 31 -14
16 -14 19 0 41 13 20 14 27 3 42 -13 17 -76 28 -106 18z m84 -37 c0 -5 -15
-11 -32 -13 -25 -3 -33 1 -33 13 0 12 8 16 33 13 17 -2 32 -7 32 -13z"/>
<path d="M320 1008 l0 -66 60 -4 c51 -2 60 0 60 14 0 13 -9 16 -45 14 -38 -2
-45 0 -45 17 0 15 5 18 30 12 26 -6 30 -4 30 14 0 17 -4 20 -30 15 -23 -5 -30
-3 -30 10 0 12 10 16 46 16 32 0 44 4 42 12 -3 8 -25 13 -61 13 l-57 0 0 -67z"/>
<path d="M503 1022 c-15 -31 -30 -59 -35 -60 -14 -6 2 -22 22 -22 13 0 17 5
14 15 -4 8 -2 15 2 16 5 0 20 2 33 3 16 2 25 -3 29 -16 2 -10 13 -18 24 -18
11 0 18 4 16 8 -28 69 -56 122 -66 127 -9 3 -22 -15 -39 -53z m47 -13 c0 -5
-7 -9 -15 -9 -9 0 -12 6 -9 15 6 15 24 11 24 -6z"/>
<path d="M649 1077 c0 -1 -1 -32 -2 -69 l-2 -66 58 -4 c49 -3 57 0 57 14 0 14
-7 17 -32 14 -50 -5 -56 0 -53 54 2 34 -2 50 -11 54 -8 3 -14 4 -15 3z"/>
<path d="M1001 1070 c-5 -3 -8 -33 -9 -67 l-1 -63 60 0 c45 0 59 3 59 15 0 11
-11 14 -45 11 -38 -2 -45 0 -43 13 3 11 12 15 31 13 21 -2 27 2 27 16 0 15 -6
18 -30 14 -23 -3 -30 0 -30 13 0 13 8 16 42 13 33 -2 44 1 46 13 2 13 -7 15
-49 15 -28 -1 -54 -3 -58 -6z"/>
<path d="M1171 1063 c-39 -27 -21 -62 33 -67 39 -4 54 -12 43 -22 -13 -13 -56
-12 -68 2 -9 11 -15 11 -25 3 -8 -6 -14 -15 -14 -20 0 -11 83 -22 108 -15 48
16 32 76 -21 76 -18 0 -39 4 -46 9 -12 8 -9 11 14 17 16 4 36 2 47 -5 15 -9
20 -8 24 4 8 20 6 22 -38 28 -23 3 -45 -1 -57 -10z"/>
<path d="M1320 1068 c0 -4 0 -11 0 -15 1 -5 12 -7 25 -5 23 3 24 1 21 -52 -2
-46 0 -56 13 -56 14 0 16 10 14 56 -2 55 -2 55 25 52 18 -2 27 2 27 11 0 11
-15 15 -62 16 -35 1 -63 -3 -63 -7z"/>
<path d="M1477 1016 c-33 -72 -32 -70 -13 -74 9 -2 16 3 16 12 0 9 6 16 13 17
6 0 20 2 31 4 11 2 20 -3 23 -16 3 -10 14 -19 24 -19 24 0 24 -2 -5 52 -13 25
-26 53 -28 63 -7 40 -34 23 -61 -39z m53 -7 c0 -5 -7 -9 -15 -9 -9 0 -12 6 -9
15 6 15 24 11 24 -6z"/>
<path d="M1590 1059 c0 -12 6 -15 25 -11 24 4 25 3 22 -52 -2 -47 1 -56 15
-56 13 0 17 9 16 43 0 69 0 70 27 65 18 -4 25 -1 25 11 0 13 -12 16 -65 17
-54 0 -65 -3 -65 -17z"/>
<path d="M1759 1075 c0 0 -2 -31 -3 -68 l-2 -68 61 3 c67 3 78 21 14 25 -45 2
-54 6 -44 22 3 6 20 9 36 6 25 -5 30 -2 27 12 -2 11 -13 17 -28 18 -14 0 -25
5 -25 10 0 6 17 10 38 10 27 0 37 4 37 16 0 12 -12 15 -55 15 -30 -1 -55 -1
-56 -1z"/>
<path d="M2034 1056 c-69 -59 14 -150 97 -106 26 14 26 60 0 60 -11 0 -26 3
-35 6 -12 4 -16 0 -16 -16 0 -17 4 -20 20 -15 11 3 20 2 20 -4 0 -5 -9 -13
-20 -16 -24 -8 -70 18 -70 40 0 35 61 60 87 34 13 -13 36 -3 30 14 -1 5 -10
11 -18 13 -7 1 -26 4 -42 7 -19 4 -35 -1 -53 -17z"/>
<path d="M2203 1071 c-5 -3 -8 -34 -8 -68 -1 -55 2 -63 18 -63 14 0 18 5 14
19 -12 46 31 50 51 5 7 -14 20 -24 32 -24 l21 0 -20 29 c-18 24 -19 30 -6 35
16 6 20 33 6 54 -8 13 -94 23 -108 13z m87 -36 c0 -16 -55 -22 -64 -6 -8 13 5
21 36 21 18 0 28 -5 28 -15z"/>
<path d="M2403 1069 c-72 -26 -46 -129 33 -129 35 0 84 35 84 60 0 24 -31 70
-48 71 -9 0 -24 2 -32 3 -8 2 -25 0 -37 -5z m75 -31 c34 -34 -13 -87 -62 -69
-28 11 -36 47 -14 69 15 15 61 15 76 0z"/>
<path d="M2567 1072 c-10 -2 -14 -8 -10 -15 4 -6 6 -26 5 -44 -4 -46 12 -70
49 -75 47 -7 72 18 74 78 2 56 -1 65 -18 58 -8 -3 -11 -21 -9 -53 3 -43 1 -49
-18 -54 -38 -10 -49 2 -52 57 -3 43 -6 51 -21 48z"/>
<path d="M2742 1071 c-4 -4 -7 -34 -7 -68 -1 -53 2 -63 17 -63 12 0 17 7 15
27 -2 25 1 28 29 28 53 0 81 38 49 65 -16 13 -89 20 -103 11z m86 -38 c2 -9
-8 -13 -32 -13 -34 0 -44 8 -29 24 11 11 56 2 61 -11z"/>
<path d="M62 862 c-28 -2 -52 -7 -52 -11 0 -4 671 -8 1490 -8 914 0 1487 4
1481 10 -8 8 -2782 17 -2919 9z"/>
</g>
</svg>
